<svg width="12" height="13" viewBox="0 0 12 13" fill="none" xmlns="http://www.w3.org/2000/svg">
<path fill-rule="evenodd" clip-rule="evenodd" d="M1.1999 0.0999985C1.64173 0.0999985 1.9999 0.458171 1.9999 0.899998V2.581C3.01598 1.54391 4.43232 0.899998 5.9999 0.899998C8.43943 0.899998 10.5127 2.45945 11.281 4.6334C11.4283 5.04997 11.2099 5.50703 10.7934 5.65427C10.3768 5.80151 9.91974 5.58317 9.7725 5.16659C9.22301 3.61193 7.74028 2.5 5.9999 2.5C4.69196 2.5 3.52953 3.12801 2.79938 4.1H5.1999C5.64173 4.1 5.9999 4.45817 5.9999 4.9C5.9999 5.34183 5.64173 5.7 5.1999 5.7H1.1999C0.758075 5.7 0.399902 5.34183 0.399902 4.9V0.899998C0.399902 0.458171 0.758075 0.0999985 1.1999 0.0999985ZM1.20643 7.34573C1.62301 7.19849 2.08007 7.41683 2.2273 7.8334C2.7768 9.38807 4.25953 10.5 5.9999 10.5C7.30785 10.5 8.47027 9.87198 9.20042 8.9L6.7999 8.9C6.35808 8.9 5.9999 8.54183 5.9999 8.1C5.9999 7.65817 6.35808 7.3 6.7999 7.3H10.7999C11.0121 7.3 11.2156 7.38428 11.3656 7.53431C11.5156 7.68434 11.5999 7.88782 11.5999 8.1V12.1C11.5999 12.5418 11.2417 12.9 10.7999 12.9C10.3581 12.9 9.9999 12.5418 9.9999 12.1V10.419C8.98383 11.4561 7.56749 12.1 5.9999 12.1C3.56038 12.1 1.48714 10.5405 0.71876 8.3666C0.571522 7.95002 0.789862 7.49296 1.20643 7.34573Z" fill="#EFEFEF"/>
</svg>
