<svg width="12" height="13" viewBox="0 0 12 13" fill="none" xmlns="http://www.w3.org/2000/svg">
<path fill-rule="evenodd" clip-rule="evenodd" d="M0.399902 1.7C0.399902 1.25817 0.758075 0.900002 1.1999 0.900002H10.7999C11.2417 0.900002 11.5999 1.25817 11.5999 1.7C11.5999 2.14183 11.2417 2.5 10.7999 2.5H1.1999C0.758075 2.5 0.399902 2.14183 0.399902 1.7ZM0.399902 4.9C0.399902 4.45817 0.758075 4.1 1.1999 4.1H10.7999C11.2417 4.1 11.5999 4.45817 11.5999 4.9C11.5999 5.34183 11.2417 5.7 10.7999 5.7H1.1999C0.758075 5.7 0.399902 5.34183 0.399902 4.9ZM0.399902 8.1C0.399902 7.65817 0.758075 7.3 1.1999 7.3H10.7999C11.2417 7.3 11.5999 7.65817 11.5999 8.1C11.5999 8.54183 11.2417 8.9 10.7999 8.9H1.1999C0.758075 8.9 0.399902 8.54183 0.399902 8.1ZM0.399902 11.3C0.399902 10.8582 0.758075 10.5 1.1999 10.5H10.7999C11.2417 10.5 11.5999 10.8582 11.5999 11.3C11.5999 11.7418 11.2417 12.1 10.7999 12.1H1.1999C0.758075 12.1 0.399902 11.7418 0.399902 11.3Z" fill="#EFEFEF"/>
</svg>
