<svg width="11" height="12" viewBox="0 0 11 12" fill="none" xmlns="http://www.w3.org/2000/svg">
<path fill-rule="evenodd" clip-rule="evenodd" d="M3.00016 3.49999V2.83333C3.00016 1.72876 3.89559 0.833328 5.00016 0.833328H6.3335C7.43807 0.833328 8.3335 1.72876 8.3335 2.83333V3.49999H9.66683C10.4032 3.49999 11.0002 4.09695 11.0002 4.83333V7.21384C9.33993 7.82981 7.54342 8.16662 5.66685 8.16662C3.79026 8.16662 1.99374 7.82981 0.333496 7.21382V4.83333C0.333496 4.09695 0.93045 3.49999 1.66683 3.49999H3.00016ZM4.3335 2.83333C4.3335 2.46514 4.63197 2.16666 5.00016 2.16666H6.3335C6.70169 2.16666 7.00016 2.46514 7.00016 2.83333V3.49999H4.3335V2.83333ZM5.00016 6.16666C5.00016 5.79847 5.29864 5.49999 5.66683 5.49999H5.6735C6.04169 5.49999 6.34016 5.79847 6.34016 6.16666C6.34016 6.53485 6.04169 6.83333 5.6735 6.83333H5.66683C5.29864 6.83333 5.00016 6.53485 5.00016 6.16666Z" fill="#EFEFEF"/>
<path d="M0.333496 8.62817V10.1667C0.333496 10.903 0.93045 11.5 1.66683 11.5H9.66683C10.4032 11.5 11.0002 10.903 11.0002 10.1667V8.62818C9.32498 9.19362 7.5311 9.49996 5.66685 9.49996C3.80258 9.49996 2.00869 9.19362 0.333496 8.62817Z" fill="#EFEFEF"/>
</svg>
