<svg width="64" height="92" viewBox="0 0 64 92" fill="none" xmlns="http://www.w3.org/2000/svg">
<path d="M41.5999 47.2C41.5999 52.5019 37.3019 56.8 32 56.8C26.698 56.8 22.4 52.5019 22.4 47.2C22.4 41.8981 26.698 37.6 32 37.6C37.3019 37.6 41.5999 41.8981 41.5999 47.2Z" fill="white"/>
<path d="M57.5999 53.6C57.5999 57.1346 54.7346 60 51.1999 60C47.6653 60 44.7999 57.1346 44.7999 53.6C44.7999 50.0654 47.6653 47.2 51.1999 47.2C54.7346 47.2 57.5999 50.0654 57.5999 53.6Z" fill="white"/>
<path d="M44.7999 76C44.7999 68.9308 39.0692 63.2 32 63.2C24.9307 63.2 19.2 68.9308 19.2 76V85.6H44.7999V76Z" fill="white"/>
<path d="M19.2 53.6C19.2 57.1346 16.3346 60 12.8 60C9.26533 60 6.39995 57.1346 6.39995 53.6C6.39995 50.0654 9.26533 47.2 12.8 47.2C16.3346 47.2 19.2 50.0654 19.2 53.6Z" fill="white"/>
<path d="M51.1999 85.6V76C51.1999 72.6267 50.33 69.4567 48.8023 66.7018C49.5687 66.5048 50.3721 66.4 51.1999 66.4C56.5019 66.4 60.7999 70.6981 60.7999 76V85.6H51.1999Z" fill="white"/>
<path d="M15.1976 66.7018C13.6699 69.4567 12.8 72.6267 12.8 76V85.6H3.19995V76C3.19995 70.6981 7.49802 66.4 12.8 66.4C13.6278 66.4 14.4312 66.5048 15.1976 66.7018Z" fill="white"/>
</svg>
