<svg width="64" height="97" viewBox="0 0 64 97" fill="none" xmlns="http://www.w3.org/2000/svg">
<path fill-rule="evenodd" clip-rule="evenodd" d="M12.8001 34.4C14.5674 34.4 16.0001 35.8327 16.0001 37.6V44.324C20.0644 40.1756 25.7298 37.6 32.0001 37.6C41.7582 37.6 50.0512 43.8378 53.1247 52.5336C53.7136 54.1999 52.8403 56.0281 51.174 56.6171C49.5077 57.206 47.6794 56.3327 47.0905 54.6664C44.8925 48.4477 38.9616 44 32.0001 44C26.7683 44 22.1186 46.5121 19.198 50.4H28.8001C30.5674 50.4 32.0001 51.8327 32.0001 53.6C32.0001 55.3673 30.5674 56.8 28.8001 56.8H12.8001C11.0328 56.8 9.6001 55.3673 9.6001 53.6V37.6C9.6001 35.8327 11.0328 34.4 12.8001 34.4ZM12.8262 63.3829C14.4925 62.794 16.3208 63.6673 16.9097 65.3336C19.1077 71.5523 25.0386 76 32.0001 76C37.2319 76 41.8816 73.4879 44.8022 69.6L35.2001 69.6C33.4328 69.6 32.0001 68.1673 32.0001 66.4C32.0001 64.6327 33.4328 63.2 35.2001 63.2H51.2001C52.0488 63.2 52.8627 63.5371 53.4628 64.1372C54.063 64.7374 54.4001 65.5513 54.4001 66.4V82.4C54.4001 84.1673 52.9674 85.6 51.2001 85.6C49.4328 85.6 48.0001 84.1673 48.0001 82.4V75.676C43.9358 79.8244 38.2704 82.4 32.0001 82.4C22.242 82.4 13.949 76.1622 10.8755 67.4664C10.2866 65.8001 11.1599 63.9719 12.8262 63.3829Z" fill="white"/>
</svg>
