<svg width="64" height="69" viewBox="0 0 64 69" fill="none" xmlns="http://www.w3.org/2000/svg">
<path fill-rule="evenodd" clip-rule="evenodd" d="M9.59998 12.8C9.59998 11.0327 11.0327 9.60001 12.8 9.60001H51.2C52.9673 9.60001 54.4 11.0327 54.4 12.8C54.4 14.5673 52.9673 16 51.2 16H12.8C11.0327 16 9.59998 14.5673 9.59998 12.8ZM9.59998 25.6C9.59998 23.8327 11.0327 22.4 12.8 22.4H51.2C52.9673 22.4 54.4 23.8327 54.4 25.6C54.4 27.3673 52.9673 28.8 51.2 28.8H12.8C11.0327 28.8 9.59998 27.3673 9.59998 25.6ZM9.59998 38.4C9.59998 36.6327 11.0327 35.2 12.8 35.2H51.2C52.9673 35.2 54.4 36.6327 54.4 38.4C54.4 40.1673 52.9673 41.6 51.2 41.6H12.8C11.0327 41.6 9.59998 40.1673 9.59998 38.4ZM9.59998 51.2C9.59998 49.4327 11.0327 48 12.8 48H51.2C52.9673 48 54.4 49.4327 54.4 51.2C54.4 52.9673 52.9673 54.4 51.2 54.4H12.8C11.0327 54.4 9.59998 52.9673 9.59998 51.2Z" fill="white"/>
</svg>
