<svg version="1.1" id="Layer_1" xmlns="http://www.w3.org/2000/svg" xmlns:xlink="http://www.w3.org/1999/xlink" x="0px" y="0px"
	 width="100%" viewBox="0 0 400 400" enable-background="new 0 0 400 400" xml:space="preserve">
<path fill="#000000" opacity="1.000000" stroke="none" 
	d="
M256.000000,401.000000 
	C170.666672,401.000000 85.833336,401.000000 1.000000,401.000000 
	C1.000000,267.666656 1.000000,134.333328 1.000000,1.000000 
	C134.333328,1.000000 267.666656,1.000000 401.000000,1.000000 
	C401.000000,134.333328 401.000000,267.666656 401.000000,401.000000 
	C352.833344,401.000000 304.666656,401.000000 256.000000,401.000000 
M296.947418,256.719574 
	C296.955688,220.570160 296.924591,184.420624 297.047424,148.271606 
	C297.057159,145.405426 296.114197,143.836548 293.746887,142.435928 
	C263.956879,124.810852 234.235779,107.069038 204.385483,89.547134 
	C202.850067,88.645859 199.849380,88.684868 198.299179,89.594879 
	C168.464569,107.108643 138.761124,124.845688 108.969765,142.433609 
	C106.686546,143.781540 105.831833,145.174271 105.839867,147.873993 
	C105.945442,183.356857 105.871574,218.840317 106.030479,254.322800 
	C106.037994,256.001068 107.372620,258.380005 108.805344,259.241119 
	C138.598312,277.147705 168.474396,294.916809 198.433334,312.544342 
	C199.901932,313.408478 202.730270,313.508972 204.158920,312.665985 
	C235.105774,294.405365 265.943481,275.959808 296.947418,256.719574 
z"/>
<path fill="#FCFCFC" opacity="1.000000" stroke="none" 
	d="
M296.874817,257.134705 
	C265.943481,275.959808 235.105774,294.405365 204.158920,312.665985 
	C202.730270,313.508972 199.901932,313.408478 198.433334,312.544342 
	C168.474396,294.916809 138.598312,277.147705 108.805344,259.241119 
	C107.372620,258.380005 106.037994,256.001068 106.030479,254.322800 
	C105.871574,218.840317 105.945442,183.356857 105.839867,147.873993 
	C105.831833,145.174271 106.686546,143.781540 108.969765,142.433609 
	C138.761124,124.845688 168.464569,107.108643 198.299179,89.594879 
	C199.849380,88.684868 202.850067,88.645859 204.385483,89.547134 
	C234.235779,107.069038 263.956879,124.810852 293.746887,142.435928 
	C296.114197,143.836548 297.057159,145.405426 297.047424,148.271606 
	C296.924591,184.420624 296.955688,220.570160 296.874817,257.134705 
M120.092911,214.499969 
	C120.092926,224.993744 119.966080,235.490616 120.220428,245.978210 
	C120.261826,247.684891 121.561478,250.061203 123.002007,250.929642 
	C147.956314,265.973602 173.041214,280.800781 198.039261,295.772705 
	C200.492264,297.241882 202.370300,297.197540 204.809738,295.736359 
	C229.380676,281.018982 253.985046,266.356445 278.674316,251.838852 
	C281.659241,250.083694 282.622101,248.117447 282.585663,244.735825 
	C282.409851,228.413940 282.506500,212.089142 282.506500,195.765366 
	C282.506500,182.991165 282.506500,170.216980 282.506500,156.512390 
	C270.678650,163.937683 259.494934,170.870483 248.461411,178.034592 
	C247.463074,178.682816 247.027100,180.817535 247.015167,182.267593 
	C246.906830,195.425522 246.832520,208.586533 247.037552,221.742142 
	C247.086121,224.858917 245.980942,226.470718 243.419067,227.959183 
	C230.396011,235.525711 217.441864,243.212326 204.533020,250.972412 
	C202.345154,252.287643 200.737701,252.539200 198.370865,251.098053 
	C185.360855,243.176300 172.158890,235.568985 159.182083,227.594559 
	C157.626785,226.638794 156.177139,224.131088 156.137787,222.311157 
	C155.871338,209.990799 156.041550,197.661575 155.938889,185.336319 
	C155.926605,183.861450 155.590927,181.668304 154.610931,181.032822 
	C143.437683,173.787079 132.110062,166.779404 120.092911,159.250290 
	C120.092911,177.979599 120.092911,195.739777 120.092911,214.499969 
M243.260239,129.228989 
	C230.461670,121.621941 217.712402,113.929001 204.802246,106.516289 
	C203.184036,105.587158 200.207016,105.263802 198.718933,106.132263 
	C175.423401,119.727684 152.269211,133.565277 128.668823,147.592987 
	C139.321320,154.259064 149.631470,160.841324 160.130417,167.107239 
	C161.369797,167.846909 163.960464,167.398239 165.389328,166.573196 
	C176.147018,160.361404 186.842102,154.032257 197.389816,147.471420 
	C200.329437,145.642944 202.441040,145.716736 205.347000,147.522202 
	C215.326889,153.722687 225.478775,159.648544 235.629868,165.568008 
	C236.730087,166.209595 238.659149,166.800293 239.515991,166.280609 
	C250.159470,159.825272 260.675446,153.159683 271.768524,146.207062 
	C262.023102,140.435547 252.934555,135.053009 243.260239,129.228989 
z"/>
<path fill="#030303" opacity="1.000000" stroke="none" 
	d="
M120.092911,213.999969 
	C120.092911,195.739777 120.092911,177.979599 120.092911,159.250290 
	C132.110062,166.779404 143.437683,173.787079 154.610931,181.032822 
	C155.590927,181.668304 155.926605,183.861450 155.938889,185.336319 
	C156.041550,197.661575 155.871338,209.990799 156.137787,222.311157 
	C156.177139,224.131088 157.626785,226.638794 159.182083,227.594559 
	C172.158890,235.568985 185.360855,243.176300 198.370865,251.098053 
	C200.737701,252.539200 202.345154,252.287643 204.533020,250.972412 
	C217.441864,243.212326 230.396011,235.525711 243.419067,227.959183 
	C245.980942,226.470718 247.086121,224.858917 247.037552,221.742142 
	C246.832520,208.586533 246.906830,195.425522 247.015167,182.267593 
	C247.027100,180.817535 247.463074,178.682816 248.461411,178.034592 
	C259.494934,170.870483 270.678650,163.937683 282.506500,156.512390 
	C282.506500,170.216980 282.506500,182.991165 282.506500,195.765366 
	C282.506500,212.089142 282.409851,228.413940 282.585663,244.735825 
	C282.622101,248.117447 281.659241,250.083694 278.674316,251.838852 
	C253.985046,266.356445 229.380676,281.018982 204.809738,295.736359 
	C202.370300,297.197540 200.492264,297.241882 198.039261,295.772705 
	C173.041214,280.800781 147.956314,265.973602 123.002007,250.929642 
	C121.561478,250.061203 120.261826,247.684891 120.220428,245.978210 
	C119.966080,235.490616 120.092926,224.993744 120.092911,213.999969 
z"/>
<path fill="#030303" opacity="1.000000" stroke="none" 
	d="
M243.553116,129.449738 
	C252.934555,135.053009 262.023102,140.435547 271.768524,146.207062 
	C260.675446,153.159683 250.159470,159.825272 239.515991,166.280609 
	C238.659149,166.800293 236.730087,166.209595 235.629868,165.568008 
	C225.478775,159.648544 215.326889,153.722687 205.347000,147.522202 
	C202.441040,145.716736 200.329437,145.642944 197.389816,147.471420 
	C186.842102,154.032257 176.147018,160.361404 165.389328,166.573196 
	C163.960464,167.398239 161.369797,167.846909 160.130417,167.107239 
	C149.631470,160.841324 139.321320,154.259064 128.668823,147.592987 
	C152.269211,133.565277 175.423401,119.727684 198.718933,106.132263 
	C200.207016,105.263802 203.184036,105.587158 204.802246,106.516289 
	C217.712402,113.929001 230.461670,121.621941 243.553116,129.449738 
z"/>
</svg>