<svg width="10" height="10" viewBox="0 0 10 10" fill="none" xmlns="http://www.w3.org/2000/svg">
<path fill-rule="evenodd" clip-rule="evenodd" d="M5.0002 9.79995C7.65116 9.79995 9.8002 7.65092 9.8002 4.99995C9.8002 2.34898 7.65116 0.199951 5.0002 0.199951C2.34923 0.199951 0.200195 2.34898 0.200195 4.99995C0.200195 7.65092 2.34923 9.79995 5.0002 9.79995ZM6.0002 2.59995C6.0002 2.04767 5.55248 1.59995 5.0002 1.59995C4.44791 1.59995 4.0002 2.04767 4.0002 2.59995V4.99995C4.0002 5.26517 4.10555 5.51952 4.29309 5.70706L5.99014 7.40411C6.38067 7.79464 7.01383 7.79464 7.40436 7.40411C7.79488 7.01359 7.79488 6.38043 7.40436 5.9899L6.0002 4.58574V2.59995Z" fill="#888888"/>
</svg>
