<svg width="12" height="10" viewBox="0 0 12 10" fill="none" xmlns="http://www.w3.org/2000/svg">
<path d="M7.8001 2.60005C7.8001 3.59416 6.99421 4.40005 6.0001 4.40005C5.00598 4.40005 4.2001 3.59416 4.2001 2.60005C4.2001 1.60594 5.00598 0.800049 6.0001 0.800049C6.99421 0.800049 7.8001 1.60594 7.8001 2.60005Z" fill="#888888"/>
<path d="M10.8001 3.80005C10.8001 4.46279 10.2628 5.00005 9.6001 5.00005C8.93736 5.00005 8.4001 4.46279 8.4001 3.80005C8.4001 3.13731 8.93736 2.60005 9.6001 2.60005C10.2628 2.60005 10.8001 3.13731 10.8001 3.80005Z" fill="#888888"/>
<path d="M8.4001 8.00005C8.4001 6.67457 7.32558 5.60005 6.0001 5.60005C4.67461 5.60005 3.6001 6.67457 3.6001 8.00005V9.80005H8.4001V8.00005Z" fill="#888888"/>
<path d="M3.6001 3.80005C3.6001 4.46279 3.06284 5.00005 2.4001 5.00005C1.73736 5.00005 1.2001 4.46279 1.2001 3.80005C1.2001 3.13731 1.73736 2.60005 2.4001 2.60005C3.06284 2.60005 3.6001 3.13731 3.6001 3.80005Z" fill="#888888"/>
<path d="M9.6001 9.80005V8.00005C9.6001 7.36756 9.43699 6.77317 9.15054 6.25664C9.29424 6.2197 9.44487 6.20005 9.6001 6.20005C10.5942 6.20005 11.4001 7.00594 11.4001 8.00005V9.80005H9.6001Z" fill="#888888"/>
<path d="M2.84966 6.25664C2.56321 6.77317 2.4001 7.36756 2.4001 8.00005V9.80005H0.600098V8.00005C0.600098 7.00594 1.40599 6.20005 2.4001 6.20005C2.55532 6.20005 2.70596 6.2197 2.84966 6.25664Z" fill="#888888"/>
</svg>
