<svg width="66" height="69" viewBox="0 0 66 69" fill="none" xmlns="http://www.w3.org/2000/svg">
<path d="M39.7397 38.4905L50.7048 44.8281" stroke="#443E3F" stroke-width="3.35324" stroke-miterlimit="10"/>
<path d="M50.7048 24.3735L39.7397 30.7111" stroke="#443E3F" stroke-width="3.35324" stroke-miterlimit="10"/>
<path d="M33 17.9683V26.7873" stroke="#443E3F" stroke-width="3.35324" stroke-miterlimit="10"/>
<path d="M33 42.4133V50.7294" stroke="#443E3F" stroke-width="3.35324" stroke-miterlimit="10"/>
<path d="M50.7383 24.3733V18.8069L39.7733 12.4693V14.3807L32.9997 18.2704L26.2262 14.3807V12.4358L15.2611 18.7734V24.3733L10.3989 27.19V42.0784L15.2611 44.8616V50.3944L26.2262 56.732V54.6195L32.9997 50.7297L39.7733 54.6195V56.6649L50.7383 50.3609V44.8616L55.4999 42.1119V27.123L50.7383 24.3733Z" stroke="#443E3F" stroke-width="3.35324" stroke-miterlimit="10"/>
<path d="M26.2265 38.4905L15.2949 44.8281" stroke="#443E3F" stroke-width="3.35324" stroke-miterlimit="10"/>
<path d="M14.6577 24.0051L26.2264 30.6781" stroke="#443E3F" stroke-width="3.35324" stroke-miterlimit="10"/>
<path d="M39.7731 54.6192L32.9996 50.7295L26.2261 54.6192V62.4658L32.9996 66.3556L39.7731 62.4658V54.6192Z" stroke="black" stroke-width="3.35324" stroke-miterlimit="10"/>
<path d="M39.7731 54.6196L32.9996 58.5429L26.2261 54.6196" stroke="black" stroke-width="3.35324" stroke-miterlimit="10"/>
<path d="M33 66.3558V58.5427" stroke="black" stroke-width="3.35324" stroke-miterlimit="10"/>
<path d="M15.2611 16.5611L8.52109 12.6714L1.74756 16.5611V24.3742L8.52109 28.2975L15.2611 24.3742V16.5611Z" stroke="black" stroke-width="3.35324" stroke-miterlimit="10"/>
<path d="M15.2611 16.5601L8.52109 20.4833L1.74756 16.5601" stroke="black" stroke-width="3.35324" stroke-miterlimit="10"/>
<path d="M8.521 28.2962V20.4832" stroke="black" stroke-width="3.35324" stroke-miterlimit="10"/>
<path d="M50.7388 16.5611L57.4788 12.6714L64.2523 16.5611V24.3742L57.4788 28.2975L50.7388 24.3742V16.5611Z" stroke="black" stroke-width="3.35324" stroke-miterlimit="10"/>
<path d="M50.7388 16.5601L57.4788 20.4833L64.2523 16.5601" stroke="black" stroke-width="3.35324" stroke-miterlimit="10"/>
<path d="M57.4785 28.2962V20.4832" stroke="black" stroke-width="3.35324" stroke-miterlimit="10"/>
<path d="M15.2611 44.8624L8.52109 40.9727L1.74756 44.8624V52.6754L8.52109 56.5987L15.2611 52.6754V44.8624Z" stroke="black" stroke-width="3.35324" stroke-miterlimit="10"/>
<path d="M15.2611 44.8613L8.52109 48.7846L1.74756 44.8613" stroke="black" stroke-width="3.35324" stroke-miterlimit="10"/>
<path d="M8.521 56.5972V48.7842" stroke="black" stroke-width="3.35324" stroke-miterlimit="10"/>
<path d="M50.7388 44.8624L57.4788 40.9727L64.2523 44.8624V52.6754L57.4788 56.5987L50.7388 52.6754V44.8624Z" stroke="black" stroke-width="3.35324" stroke-miterlimit="10"/>
<path d="M50.7388 44.8613L57.4788 48.7846L64.2523 44.8613" stroke="black" stroke-width="3.35324" stroke-miterlimit="10"/>
<path d="M57.4785 56.5972V48.7842" stroke="black" stroke-width="3.35324" stroke-miterlimit="10"/>
<path d="M39.7731 6.56782L32.9996 2.64453L26.2261 6.56782V14.3809L32.9996 18.2706L39.7731 14.3809V6.56782Z" stroke="black" stroke-width="3.35324" stroke-miterlimit="10"/>
<path d="M39.7731 6.56763L32.9996 10.4574L26.2261 6.56763" stroke="black" stroke-width="3.35324" stroke-miterlimit="10"/>
<path d="M33 18.2708V10.4578" stroke="black" stroke-width="3.35324" stroke-miterlimit="10"/>
<path d="M39.7731 30.7119L32.9996 26.7886L26.2261 30.7119V38.5249L32.9996 42.4146L39.7731 38.5249V30.7119Z" stroke="black" stroke-width="3.35324" stroke-miterlimit="10"/>
<path d="M39.7731 30.7114L32.9996 34.6012L26.2261 30.7114" stroke="black" stroke-width="3.35324" stroke-miterlimit="10"/>
<path d="M33 42.4131V34.6001" stroke="black" stroke-width="3.35324" stroke-miterlimit="10"/>
</svg>
