<svg width="69" height="91" viewBox="0 0 69 91" fill="none" xmlns="http://www.w3.org/2000/svg">
<path d="M67.1336 61.2074C67.1336 62.9895 67.3991 72.2411 66.072 73.3786C64.7449 74.5161 53.4078 74.2886 50.602 74.2886C43.7391 74.2886 36.8382 74.2886 29.9753 74.4782H14.5053H10.4482C9.87947 74.4782 9.95531 72.2411 9.99322 71.2174V66.7053C9.99322 63.8994 9.99322 58.667 9.99322 55.8232C9.99322 42.287 9.72781 18.8165 11.017 17.9065C13.3299 16.0107 23.4536 16.9965 30.2028 16.9586L52.9528 16.7311C58.3749 16.5415 64.7449 16.2003 65.9582 17.224C66.8424 18.2828 67.2899 19.6387 67.2095 21.0157V25.907V35.6136" stroke="black" stroke-width="6.70647" stroke-linecap="round" stroke-linejoin="round"/>
<path d="M11.356 29.5852C18.1051 29.3577 23.9443 29.5852 30.5797 29.3198L51.2064 29.0165L67.0935 28.8269" stroke="black" stroke-width="6.70647" stroke-linecap="round" stroke-linejoin="round"/>
<path d="M21.6709 29.282C21.6709 30.9882 21.6709 32.7324 21.6709 34.4386" stroke="black" stroke-width="6.70647" stroke-linecap="round" stroke-linejoin="round"/>
<path d="M11.5098 39.9736C13.4515 39.7839 15.4072 39.7839 17.3489 39.9736" stroke="black" stroke-width="6.70647" stroke-linecap="round" stroke-linejoin="round"/>
<path d="M21.291 43.7659C21.291 43.7659 21.291 49.0363 21.291 50.1738V57.4159C21.291 62.4588 21.291 67.5396 21.291 72.5825" stroke="black" stroke-width="6.70647" stroke-linecap="round" stroke-linejoin="round"/>
<path d="M26.5239 39.0269L34.3727 38.8374H43.2452L60.8006 38.6099" stroke="black" stroke-width="6.70647" stroke-linecap="round" stroke-linejoin="round"/>
<path d="M44.7246 30.04C44.7246 31.7842 44.7246 38.3817 44.7246 40.2396V46.1546C44.7246 47.823 44.7246 51.7663 44.7246 51.7663" stroke="black" stroke-width="6.70647" stroke-linecap="round" stroke-linejoin="round"/>
<path d="M37.0647 49.9089C36.9677 49.4304 36.7387 48.9886 36.4037 48.6335C36.0686 48.2784 35.6409 48.024 35.1689 47.8993C34.7485 47.7915 34.3083 47.7869 33.8858 47.886C33.4632 47.985 33.0709 48.1847 32.7422 48.4681C32.1647 49.155 31.8265 50.0111 31.7786 50.9072C31.7307 51.8033 31.9758 52.6907 32.4768 53.4352C33.3489 54.9898 34.7897 56.1652 35.8135 57.6439C36.3927 58.3435 36.755 59.1969 36.8561 60.0995C36.9571 61.002 36.7924 61.9145 36.3822 62.7248C35.9752 63.3382 35.3515 63.7753 34.6359 63.9484C33.9204 64.1215 33.1658 64.0179 32.5234 63.6583C31.881 63.2988 31.3982 62.7098 31.1715 62.0094C30.9449 61.3089 30.9913 60.5487 31.3014 59.881" stroke="black" stroke-width="6.70647" stroke-linecap="round" stroke-linejoin="round"/>
<path d="M34.4126 64.8857C34.4126 64.8857 34.4126 66.2128 34.4126 67.4262" stroke="black" stroke-width="6.70647" stroke-linecap="round" stroke-linejoin="round"/>
<path d="M34.1079 44.334C34.1079 44.9027 34.1079 45.4336 34.1079 46.0023" stroke="black" stroke-width="6.70647" stroke-linecap="round" stroke-linejoin="round"/>
<path d="M77.3335 34.9319C77.978 34.9319 78.926 35.8799 79.381 36.3349C79.836 36.7899 80.253 37.4344 80.8218 38.0032C81.4129 38.4622 81.8388 39.101 82.0351 39.8232C82.0351 40.7711 81.4664 41.1503 80.8597 41.719L79.5326 42.9703L76.8405 45.5107L71.4564 50.5536L71.2668 50.7811C67.6647 54.1557 65.8447 55.9757 62.2805 59.3503C61.636 59.9569 59.4368 62.1182 58.868 62.7249C56.6737 63.7301 54.33 64.3705 51.9293 64.6207C51.7902 62.0387 52.1905 59.4561 53.1047 57.0374C53.9389 56.1274 60.3089 50.3261 63.9489 46.9894L74.7551 36.9415C75.1722 36.3728 76.4235 34.8561 77.3335 34.9319Z" stroke="black" stroke-width="6.70647" stroke-miterlimit="10"/>
</svg>
