<svg width="90" height="89" viewBox="0 0 90 89" fill="none" xmlns="http://www.w3.org/2000/svg">
<path d="M44.0364 29.8339C37.2131 31.4472 32.6518 42.0439 39.3639 47.5439C48.7089 55.5006 60.3901 38.8906 51.1193 31.7039C50.1745 30.8573 49.0389 30.2459 47.8069 29.9207C46.575 29.5954 45.2823 29.5657 44.0364 29.8339Z" stroke="black" stroke-width="6.30409" stroke-linecap="round" stroke-linejoin="round"/>
<path d="M65.8409 72.8065C65.1363 60.7432 55.1609 49.0832 42.1446 50.8065C36.4872 51.7126 31.4015 54.7423 27.9474 59.2642C24.4932 63.7861 22.937 69.4515 23.6029 75.0799" stroke="black" stroke-width="6.30409" stroke-linecap="round" stroke-linejoin="round"/>
<path d="M38.6592 24.4061C25.0125 10.2161 8.73292 40.5395 28.6096 42.0795C17.0396 41.3828 8.54751 53.0795 10.0679 64.0795" stroke="black" stroke-width="6.30409" stroke-linecap="round" stroke-linejoin="round"/>
<path d="M51.6011 24.8835C65.4702 10.6935 82.0836 40.8335 61.6507 42.5935C73.2577 41.8602 81.7127 53.5935 80.1923 64.5935" stroke="black" stroke-width="6.30409" stroke-linecap="round" stroke-linejoin="round"/>
</svg>
