<svg width="32" height="32" viewBox="0 0 32 32" fill="none" xmlns="http://www.w3.org/2000/svg">
<rect x="0.5" y="0.5" width="31" height="31" rx="15.5" stroke="#B0B0B0"/>
<path d="M16 8C12.6863 8 10 10.6863 10 14V17.5858L9.29292 18.2929C9.00692 18.5789 8.92137 19.009 9.07615 19.3827C9.23093 19.7564 9.59557 20 10 20H22C22.4045 20 22.7691 19.7564 22.9239 19.3827C23.0787 19.009 22.9931 18.5789 22.7071 18.2929L22 17.5858V14C22 10.6863 19.3137 8 16 8Z" fill="#B0B0B0"/>
<path d="M16 24C14.3431 24 13 22.6569 13 21H19C19 22.6569 17.6569 24 16 24Z" fill="#B0B0B0"/>
<g filter="url(#filter0_d_9_2814)">
<circle cx="20" cy="12" r="4" fill="#6A93FF"/>
</g>
<defs>
<filter id="filter0_d_9_2814" x="12" y="6" width="16" height="16" filterUnits="userSpaceOnUse" color-interpolation-filters="sRGB">
<feFlood flood-opacity="0" result="BackgroundImageFix"/>
<feColorMatrix in="SourceAlpha" type="matrix" values="0 0 0 0 0 0 0 0 0 0 0 0 0 0 0 0 0 0 127 0" result="hardAlpha"/>
<feOffset dy="2"/>
<feGaussianBlur stdDeviation="2"/>
<feComposite in2="hardAlpha" operator="out"/>
<feColorMatrix type="matrix" values="0 0 0 0 0 0 0 0 0 0 0 0 0 0 0 0 0 0 0.1 0"/>
<feBlend mode="normal" in2="BackgroundImageFix" result="effect1_dropShadow_9_2814"/>
<feBlend mode="normal" in="SourceGraphic" in2="effect1_dropShadow_9_2814" result="shape"/>
</filter>
</defs>
</svg>
